<svg version="1.2" xmlns="http://www.w3.org/2000/svg" viewBox="0 0 1000 1000" width="1000" height="1000"><style>.a{fill:#fff}</style><path  d="m144.2 18h712.1c69.7 0 126.2 56.5 126.2 126.2v712.1c0 69.7-56.5 126.2-126.2 126.2h-712.1c-69.7 0-126.2-56.5-126.2-126.2v-712.1c0-69.7 56.5-126.2 126.2-126.2z"/><path class="a" d="m926.1 128.2v699.4h-102.4v-699.4zm-281.6 0h130l-267.5 423-267.5-423h129.3l138.2 217.5zm153.1 13.8v685.7h-102.3v-318l-188.3 297.7-189.1-297.7v318h-102.2v-685.7l291.3 459.9zm-607.4-14v699.7h-103.2v-699.7z"/></svg>